<svg width="32" height="24" viewBox="0 0 32 24" fill="none" xmlns="http://www.w3.org/2000/svg">
<g filter="url(#filter0_d)">
<path d="M28.6014 11.4306C27.5914 10.9449 26.4382 10.6795 25.2481 10.6303C25.5658 8.58609 25.3196 6.52981 24.4802 4.7731C24.3471 4.49311 24.0589 4.32852 23.7462 4.34759C22.3039 4.45848 20.8832 4.94019 19.5874 5.71443C18.7845 3.83277 17.5298 2.22358 15.9374 1.13172C15.6818 0.956095 15.3456 0.956095 15.0899 1.13172C13.4971 2.22508 12.2419 3.83578 11.4384 5.71844C10.1427 4.9442 8.72391 4.45849 7.28161 4.34809C6.97194 4.32451 6.68178 4.49311 6.5477 4.7736C5.70774 6.53031 5.4621 8.58609 5.77978 10.6298C4.58962 10.6795 3.43548 10.9454 2.42642 11.4312C2.14676 11.5656 1.97867 11.8577 2.00218 12.1673C2.22631 15.1006 4.12536 17.9407 6.95893 19.581C8.56132 20.5093 10.3413 21 12.1063 21H12.1068C13.307 21 14.4726 20.7551 15.5137 20.3111C16.5543 20.7551 17.7199 21 18.9211 21C20.6855 21 22.4655 20.5088 24.0684 19.581C26.902 17.9402 28.8015 15.0991 29.0247 12.1673C29.0492 11.8572 28.8806 11.5651 28.6014 11.4306ZM23.3375 5.90861C24.294 8.34975 23.9944 11.3805 22.5131 13.9526C21.4555 15.7921 19.8891 17.2101 18.1391 18.018C19.684 16.0199 20.584 13.3891 20.584 10.6278C20.584 9.43409 20.4149 8.26545 20.1002 7.16054C21.1093 6.51275 22.2114 6.07771 23.3375 5.90861ZM15.5142 2.68672C17.7274 4.4354 19.0827 7.42498 19.0827 10.6273C19.0827 13.8286 17.7274 16.8177 15.5142 18.5664C13.301 16.8182 11.9457 13.8281 11.9457 10.6273C11.9457 7.42598 13.301 4.43641 15.5142 2.68672ZM7.69084 5.90861C8.81696 6.07821 9.91808 6.51626 10.9276 7.16456C10.614 8.26796 10.4449 9.43559 10.4449 10.6273C10.4449 13.3861 11.3439 16.0144 12.8857 18.0124C11.1372 17.2061 9.57238 15.7896 8.5153 13.9521C7.03397 11.3795 6.73381 8.34875 7.69084 5.90861ZM12.1068 19.4947C10.605 19.4947 9.08461 19.0732 7.70985 18.2774C5.47311 16.9818 3.92275 14.8347 3.56105 12.5787C4.34498 12.2797 5.21647 12.1221 6.11096 12.1171C6.37161 13.0052 6.73881 13.8773 7.21557 14.7052C8.46427 16.8759 10.3403 18.5569 12.446 19.4811C12.3334 19.4856 12.2214 19.4947 12.1068 19.4947ZM23.3185 18.2774C21.9432 19.0732 20.4229 19.4947 18.9216 19.4947C18.807 19.4947 18.6959 19.4856 18.5824 19.4811C20.688 18.5569 22.5641 16.8764 23.8128 14.7052C24.2895 13.8773 24.6562 13.0057 24.9169 12.1171C25.8119 12.1231 26.6824 12.2797 27.4663 12.5797C27.1056 14.8347 25.5547 16.9818 23.3185 18.2774Z" fill="white"/>
</g>
<defs>
<filter id="filter0_d" x="0" y="0" width="31.027" height="24" filterUnits="userSpaceOnUse" color-interpolation-filters="sRGB">
<feFlood flood-opacity="0" result="BackgroundImageFix"/>
<feColorMatrix in="SourceAlpha" type="matrix" values="0 0 0 0 0 0 0 0 0 0 0 0 0 0 0 0 0 0 127 0"/>
<feOffset dy="1"/>
<feGaussianBlur stdDeviation="1"/>
<feColorMatrix type="matrix" values="0 0 0 0 0 0 0 0 0 0 0 0 0 0 0 0 0 0 0.15 0"/>
<feBlend mode="normal" in2="BackgroundImageFix" result="effect1_dropShadow"/>
<feBlend mode="normal" in="SourceGraphic" in2="effect1_dropShadow" result="shape"/>
</filter>
</defs>
</svg>
